# xmcd
#
# Track frame offsets:
#	150
#	11228
#	24798
#	40113
#	54246
#	65999
#	80109
#	95274
#	116822
#	128492
#	148792
#
# Disc length: 2241 seconds
#
# Revision: 0
# Processed by: cddbd v1.5.1PL0 Copyright (c) Steve Scherf et al.
# Submitted via: dBpowerAMP V4.0
#
DISCID=9208bf0b
DTITLE=Michael Bright - Jesus...He Is So Much More
DYEAR=1900
DGENRE=
TTITLE0=Jesus Is My Happiness
TTITLE1=Today
TTITLE2=He Is So Much More
TTITLE3=By Faith
TTITLE4=I Want The World To Know
TTITLE5=I Know He Cares
TTITLE6=I Love America
TTITLE7=How Great Thou Art
TTITLE8=Amazing Grace
TTITLE9=I've come To Praise The Lord
TTITLE10=Lord Save Me
EXTD=
EXTT0=
EXTT1=
EXTT2=
EXTT3=
EXTT4=
EXTT5=
EXTT6=
EXTT7=
EXTT8=
EXTT9=
EXTT10=
PLAYORDER=
